<svg width="18" height="18" viewBox="0 0 18 18" fill="none" xmlns="http://www.w3.org/2000/svg">
<path d="M5.25 15.75C4.8375 15.75 4.4845 15.6033 4.191 15.3098C3.8975 15.0163 3.7505 14.663 3.75 14.25V4.5C3.5375 4.5 3.3595 4.428 3.216 4.284C3.0725 4.14 3.0005 3.962 3 3.75C2.9995 3.538 3.0715 3.36 3.216 3.216C3.3605 3.072 3.5385 3 3.75 3H6.75C6.75 2.7875 6.822 2.6095 6.966 2.466C7.11 2.3225 7.288 2.2505 7.5 2.25H10.5C10.7125 2.25 10.8908 2.322 11.0348 2.466C11.1788 2.61 11.2505 2.788 11.25 3H14.25C14.4625 3 14.6408 3.072 14.7848 3.216C14.9288 3.36 15.0005 3.538 15 3.75C14.9995 3.962 14.9275 4.14025 14.784 4.28475C14.6405 4.42925 14.4625 4.501 14.25 4.5V14.25C14.25 14.6625 14.1033 15.0158 13.8098 15.3098C13.5163 15.6038 13.163 15.7505 12.75 15.75H5.25ZM8.25 8.8875V11.25C8.25 11.4625 8.322 11.6408 8.466 11.7848C8.61 11.9288 8.788 12.0005 9 12C9.212 11.9995 9.39025 11.9275 9.53475 11.784C9.67925 11.6405 9.751 11.4625 9.75 11.25V8.8875L10.425 9.54375C10.5625 9.68125 10.7345 9.75 10.941 9.75C11.1475 9.75 11.3255 9.675 11.475 9.525C11.6125 9.3875 11.6813 9.2125 11.6813 9C11.6813 8.7875 11.6125 8.6125 11.475 8.475L9.525 6.525C9.375 6.375 9.2 6.3 9 6.3C8.8 6.3 8.625 6.375 8.475 6.525L6.525 8.475C6.3875 8.6125 6.31575 8.7845 6.30975 8.991C6.30375 9.1975 6.3755 9.3755 6.525 9.525C6.6625 9.6625 6.8345 9.7345 7.041 9.741C7.2475 9.7475 7.4255 9.68175 7.575 9.54375L8.25 8.8875Z" fill="white"/>
</svg>
